<svg xmlns="http://www.w3.org/2000/svg" xmlns:xlink="http://www.w3.org/1999/xlink" width="1600" height="840" viewBox="0 0 1600 840"><defs><filter id="grey"><feColorMatrix type="saturate" values="0"/></filter></defs><rect width="1600" height="840" fill="#f7f7f4"/><text x="60" y="78" font-family="system-ui,-apple-system,'Segoe UI',Helvetica,Arial,sans-serif" font-size="40" font-weight="700" fill="#161616">Logo concepts</text><text x="60" y="116" font-family="system-ui,-apple-system,'Segoe UI',Helvetica,Arial,sans-serif" font-size="20" fill="#6b6b6b">Concepts for review — pick a direction (or tell me what you like in each).</text><rect x="60" y="150" width="474.667" height="630" rx="18" fill="#fff" stroke="#161616" stroke-width="2"/><g filter="url(#grey)"><svg xmlns="http://www.w3.org/2000/svg" viewBox="0 0 256 256" x="90" y="190" width="414.667" height="300" preserveAspectRatio="xMidYMid meet">
  <!-- lamp: circle r22, optical centre above the slab -->
  <circle cx="128" cy="62" r="22" fill="#000"/>
  <!-- slab: 176 x 28, radius 8 -->
  <rect x="40" y="104" width="176" height="28" rx="8" fill="#000"/>
  <!-- underside: inverted triangle, 16 gap below the slab -->
  <path d="M48 148 H208 L128 228 Z" fill="#000"/>
</svg>
</g><g filter="url(#grey)"><svg xmlns="http://www.w3.org/2000/svg" viewBox="0 0 256 256" x="90" y="516" width="64" height="64" preserveAspectRatio="xMidYMid meet">
  <!-- lamp: circle r22, optical centre above the slab -->
  <circle cx="128" cy="62" r="22" fill="#000"/>
  <!-- slab: 176 x 28, radius 8 -->
  <rect x="40" y="104" width="176" height="28" rx="8" fill="#000"/>
  <!-- underside: inverted triangle, 16 gap below the slab -->
  <path d="M48 148 H208 L128 228 Z" fill="#000"/>
</svg>
</g><text x="122" y="600" font-family="system-ui,-apple-system,'Segoe UI',Helvetica,Arial,sans-serif" font-size="12" fill="#8a8a8a" text-anchor="middle">64px</text><g filter="url(#grey)"><svg xmlns="http://www.w3.org/2000/svg" viewBox="0 0 256 256" x="180" y="548" width="32" height="32" preserveAspectRatio="xMidYMid meet">
  <!-- lamp: circle r22, optical centre above the slab -->
  <circle cx="128" cy="62" r="22" fill="#000"/>
  <!-- slab: 176 x 28, radius 8 -->
  <rect x="40" y="104" width="176" height="28" rx="8" fill="#000"/>
  <!-- underside: inverted triangle, 16 gap below the slab -->
  <path d="M48 148 H208 L128 228 Z" fill="#000"/>
</svg>
</g><text x="196" y="600" font-family="system-ui,-apple-system,'Segoe UI',Helvetica,Arial,sans-serif" font-size="12" fill="#8a8a8a" text-anchor="middle">32px</text><g filter="url(#grey)"><svg xmlns="http://www.w3.org/2000/svg" viewBox="0 0 256 256" x="238" y="564" width="16" height="16" preserveAspectRatio="xMidYMid meet">
  <!-- lamp: circle r22, optical centre above the slab -->
  <circle cx="128" cy="62" r="22" fill="#000"/>
  <!-- slab: 176 x 28, radius 8 -->
  <rect x="40" y="104" width="176" height="28" rx="8" fill="#000"/>
  <!-- underside: inverted triangle, 16 gap below the slab -->
  <path d="M48 148 H208 L128 228 Z" fill="#000"/>
</svg>
</g><text x="246" y="600" font-family="system-ui,-apple-system,'Segoe UI',Helvetica,Arial,sans-serif" font-size="12" fill="#8a8a8a" text-anchor="middle">16px</text><text x="90.0" y="636" font-family="system-ui,-apple-system,'Segoe UI',Helvetica,Arial,sans-serif" font-size="26" font-weight="700" fill="#161616">A · Lamp</text><text x="90.0" y="664" font-family="system-ui,-apple-system,'Segoe UI',Helvetica,Arial,sans-serif" font-size="15" font-weight="700" fill="#161616" letter-spacing="1.5">RECOMMENDED</text><text x="90.0" y="698" font-family="system-ui,-apple-system,'Segoe UI',Helvetica,Arial,sans-serif" font-size="19" fill="#555">The site&#x27;s floating island with its lamp</text><text x="90.0" y="724" font-family="system-ui,-apple-system,'Segoe UI',Helvetica,Arial,sans-serif" font-size="19" fill="#555">lit above it.</text><rect x="562.667" y="150" width="474.667" height="630" rx="18" fill="#fff" stroke="#e4e4e0" stroke-width="1"/><g filter="url(#grey)"><svg xmlns="http://www.w3.org/2000/svg" viewBox="0 0 256 256" x="592.667" y="190" width="414.667" height="300" preserveAspectRatio="xMidYMid meet">
  <!-- two beams widening from the light point: V -->
  <path d="M116 176 L36 36 H84 L140 150 Z" fill="#000"/>
  <path d="M140 176 L220 36 H172 L116 150 Z" fill="#000"/>
  <!-- the lit point at the vertex -->
  <circle cx="128" cy="200" r="24" fill="#000"/>
</svg>
</g><g filter="url(#grey)"><svg xmlns="http://www.w3.org/2000/svg" viewBox="0 0 256 256" x="592.667" y="516" width="64" height="64" preserveAspectRatio="xMidYMid meet">
  <!-- two beams widening from the light point: V -->
  <path d="M116 176 L36 36 H84 L140 150 Z" fill="#000"/>
  <path d="M140 176 L220 36 H172 L116 150 Z" fill="#000"/>
  <!-- the lit point at the vertex -->
  <circle cx="128" cy="200" r="24" fill="#000"/>
</svg>
</g><text x="624.667" y="600" font-family="system-ui,-apple-system,'Segoe UI',Helvetica,Arial,sans-serif" font-size="12" fill="#8a8a8a" text-anchor="middle">64px</text><g filter="url(#grey)"><svg xmlns="http://www.w3.org/2000/svg" viewBox="0 0 256 256" x="682.667" y="548" width="32" height="32" preserveAspectRatio="xMidYMid meet">
  <!-- two beams widening from the light point: V -->
  <path d="M116 176 L36 36 H84 L140 150 Z" fill="#000"/>
  <path d="M140 176 L220 36 H172 L116 150 Z" fill="#000"/>
  <!-- the lit point at the vertex -->
  <circle cx="128" cy="200" r="24" fill="#000"/>
</svg>
</g><text x="698.667" y="600" font-family="system-ui,-apple-system,'Segoe UI',Helvetica,Arial,sans-serif" font-size="12" fill="#8a8a8a" text-anchor="middle">32px</text><g filter="url(#grey)"><svg xmlns="http://www.w3.org/2000/svg" viewBox="0 0 256 256" x="740.667" y="564" width="16" height="16" preserveAspectRatio="xMidYMid meet">
  <!-- two beams widening from the light point: V -->
  <path d="M116 176 L36 36 H84 L140 150 Z" fill="#000"/>
  <path d="M140 176 L220 36 H172 L116 150 Z" fill="#000"/>
  <!-- the lit point at the vertex -->
  <circle cx="128" cy="200" r="24" fill="#000"/>
</svg>
</g><text x="748.667" y="600" font-family="system-ui,-apple-system,'Segoe UI',Helvetica,Arial,sans-serif" font-size="12" fill="#8a8a8a" text-anchor="middle">16px</text><text x="592.6666666666667" y="636" font-family="system-ui,-apple-system,'Segoe UI',Helvetica,Arial,sans-serif" font-size="26" font-weight="700" fill="#161616">B · Beacon V</text><text x="592.6666666666667" y="670" font-family="system-ui,-apple-system,'Segoe UI',Helvetica,Arial,sans-serif" font-size="19" fill="#555">A V drawn as two beams of light from one</text><text x="592.6666666666667" y="696" font-family="system-ui,-apple-system,'Segoe UI',Helvetica,Arial,sans-serif" font-size="19" fill="#555">lit point.</text><rect x="1065.33" y="150" width="474.667" height="630" rx="18" fill="#fff" stroke="#e4e4e0" stroke-width="1"/><g filter="url(#grey)"><svg xmlns="http://www.w3.org/2000/svg" viewBox="0 0 256 256" x="1095.33" y="190" width="414.667" height="300" preserveAspectRatio="xMidYMid meet">
  <!-- R: stem 32 wide, bowl radius 44 with counter; leg continues into the V -->
  <path fill="#000" fill-rule="evenodd" d="M36 48 H104 A44 44 0 0 1 104 136 H68 V208 H36 Z M68 80 H104 A12 12 0 0 1 104 104 H68 Z"/>
  <path fill="#000" d="M84 136 H118 L154 196 L196 48 H229 L170 208 H138 Z"/>
</svg>
</g><g filter="url(#grey)"><svg xmlns="http://www.w3.org/2000/svg" viewBox="0 0 256 256" x="1095.33" y="516" width="64" height="64" preserveAspectRatio="xMidYMid meet">
  <!-- R: stem 32 wide, bowl radius 44 with counter; leg continues into the V -->
  <path fill="#000" fill-rule="evenodd" d="M36 48 H104 A44 44 0 0 1 104 136 H68 V208 H36 Z M68 80 H104 A12 12 0 0 1 104 104 H68 Z"/>
  <path fill="#000" d="M84 136 H118 L154 196 L196 48 H229 L170 208 H138 Z"/>
</svg>
</g><text x="1127.33" y="600" font-family="system-ui,-apple-system,'Segoe UI',Helvetica,Arial,sans-serif" font-size="12" fill="#8a8a8a" text-anchor="middle">64px</text><g filter="url(#grey)"><svg xmlns="http://www.w3.org/2000/svg" viewBox="0 0 256 256" x="1185.33" y="548" width="32" height="32" preserveAspectRatio="xMidYMid meet">
  <!-- R: stem 32 wide, bowl radius 44 with counter; leg continues into the V -->
  <path fill="#000" fill-rule="evenodd" d="M36 48 H104 A44 44 0 0 1 104 136 H68 V208 H36 Z M68 80 H104 A12 12 0 0 1 104 104 H68 Z"/>
  <path fill="#000" d="M84 136 H118 L154 196 L196 48 H229 L170 208 H138 Z"/>
</svg>
</g><text x="1201.33" y="600" font-family="system-ui,-apple-system,'Segoe UI',Helvetica,Arial,sans-serif" font-size="12" fill="#8a8a8a" text-anchor="middle">32px</text><g filter="url(#grey)"><svg xmlns="http://www.w3.org/2000/svg" viewBox="0 0 256 256" x="1243.33" y="564" width="16" height="16" preserveAspectRatio="xMidYMid meet">
  <!-- R: stem 32 wide, bowl radius 44 with counter; leg continues into the V -->
  <path fill="#000" fill-rule="evenodd" d="M36 48 H104 A44 44 0 0 1 104 136 H68 V208 H36 Z M68 80 H104 A12 12 0 0 1 104 104 H68 Z"/>
  <path fill="#000" d="M84 136 H118 L154 196 L196 48 H229 L170 208 H138 Z"/>
</svg>
</g><text x="1251.33" y="600" font-family="system-ui,-apple-system,'Segoe UI',Helvetica,Arial,sans-serif" font-size="12" fill="#8a8a8a" text-anchor="middle">16px</text><text x="1095.3333333333335" y="636" font-family="system-ui,-apple-system,'Segoe UI',Helvetica,Arial,sans-serif" font-size="26" font-weight="700" fill="#161616">C · RV ligature</text><text x="1095.3333333333335" y="670" font-family="system-ui,-apple-system,'Segoe UI',Helvetica,Arial,sans-serif" font-size="19" fill="#555">R&#x27;s leg runs on into the V: one stroke, two</text><text x="1095.3333333333335" y="696" font-family="system-ui,-apple-system,'Segoe UI',Helvetica,Arial,sans-serif" font-size="19" fill="#555">letters.</text></svg>
